# xmcd
#
# Track frame offsets:
#	150
#	22558
#	41774
#	55847
#	74431
#	91844
#	108690
#	125727
#	142741
#	159102
#	174341
#	195264
#	216884
#	235416
#	255827
#	282984
#
# Disc length: 3779 seconds
#
# Revision: 2
# Processed by: cddbd v1.5.2PL0 Copyright (c) Steve Scherf et al.
# Submitted via: audiograbber 1.83.01
#
DISCID=d00ec110
DTITLE=All Star Karaoke - ASK-1530
DYEAR=2003
DGENRE=Karaoke Country
TTITLE0=Shania Twain - Forevever And For Always
TTITLE1=Shania Twain - I'm Gonna Getcha Good
TTITLE2=Shania Twain - Up
TTITLE3=Shania Twain - Man I Feel Like A Woman
TTITLE4=Shania Twain - That Don't Impress Me Much
TTITLE5=Shania Twain - Honey I'm Home
TTITLE6=Shania Twain - You're Still The One
TTITLE7=Shania Twain - Dom't Be Stupid
TTITLE8=Shania Twain - Love Gets Me Everytime
TTITLE9=Shania Twain - No One Needs To Know
TTITLE10=Shania Twain - I'm Outta Here
TTITLE11=Shania Twain - Woman In Me, The
TTITLE12=Shania Twain - Any Man Of Mine
TTITLE13=Shania Twain - Whose Bed Have Your Boots Been Under
TTITLE14=Shania Twain and Billy Currington - Party For Two
TTITLE15=Data Track - Data Track
EXTD=
EXTT0=
EXTT1=
EXTT2=
EXTT3=
EXTT4=
EXTT5=
EXTT6=
EXTT7=
EXTT8=
EXTT9=
EXTT10=
EXTT11=
EXTT12=
EXTT13=
EXTT14=
EXTT15=
PLAYORDER=
